<svg width="1841" height="413" viewBox="0 0 1841 413" fill="none" xmlns="http://www.w3.org/2000/svg">
<path d="M206.339 410.38C94.0895 410.38 2.76953 319.06 2.76953 206.81C2.76953 94.5602 94.0895 3.24023 206.339 3.24023C318.589 3.24023 409.91 94.5602 409.91 206.81C409.91 319.06 318.589 410.38 206.339 410.38ZM206.339 24.1202C105.599 24.1202 23.6495 106.12 23.6495 206.81C23.6495 307.5 105.599 389.5 206.339 389.5C307.079 389.5 389.03 307.5 389.03 206.81C389.03 106.12 307.069 24.1202 206.339 24.1202Z" fill="#009FE3" stroke="#009FE3" stroke-width="4.83" stroke-miterlimit="10"/>
<path d="M528.17 153V184.45H599.48V222.14H528.17V253.59H618.46V291.28H485.87V115H618.46V153H528.17Z" fill="#3B3A3A"/>
<path d="M916.7 153H849.7V291.28H807.4V153H740.4V115H916.7V153Z" fill="#3B3A3A"/>
<path d="M1213 115V291.28H1170.71V226.75H1093.71V291.28H1051.41V115H1093.71V188.75H1170.71V115H1213Z" fill="#3B3A3A"/>
<path d="M1529.73 203.43C1529.7 221.798 1524.23 239.746 1514.01 255.005C1503.78 270.263 1489.26 282.146 1472.28 289.151C1455.3 296.156 1436.62 297.968 1418.61 294.359C1400.6 290.75 1384.07 281.88 1371.1 268.873C1358.13 255.866 1349.31 239.305 1345.75 221.284C1342.19 203.263 1344.06 184.593 1351.11 167.633C1358.17 150.673 1370.09 136.186 1385.38 126.004C1400.67 115.822 1418.63 110.402 1437 110.43C1488.24 110.43 1529.73 152.19 1529.73 203.43ZM1489.05 203.43C1489.05 174.69 1465.74 151.1 1437 151.1C1426.68 151.07 1416.57 154.103 1407.97 159.815C1399.37 165.527 1392.66 173.662 1388.68 183.19C1384.7 192.718 1383.64 203.211 1385.63 213.344C1387.61 223.476 1392.56 232.791 1399.84 240.111C1407.12 247.432 1416.41 252.429 1426.53 254.47C1436.65 256.511 1447.15 255.504 1456.7 251.578C1466.25 247.651 1474.42 240.981 1480.18 232.411C1485.94 223.84 1489.02 213.755 1489.05 203.43Z" fill="#3B3A3A"/>
<path d="M1841 202.89C1841.03 214.483 1838.77 225.968 1834.36 236.687C1829.94 247.407 1823.46 257.15 1815.27 265.36C1807.09 273.57 1797.36 280.085 1786.66 284.533C1775.95 288.981 1764.47 291.273 1752.88 291.28H1669.37V115H1752.88C1806.82 115 1841 154.36 1841 202.89ZM1798.71 202.89C1798.71 176.59 1779.18 157.34 1756.95 157.34H1711.67V249H1756.95C1778.89 248.17 1798.69 229.19 1798.69 202.89H1798.71Z" fill="#3B3A3A"/>
<path d="M115.05 290.49V114.25H157.35V204.25L198.83 114.25H217.27L257.94 203.46V114.25H300.51V290.49H257.94V289.68L208.05 190.68L157.35 290.46L115.05 290.49Z" fill="#3B3A3A"/>
</svg>
