<svg width="161" height="36" viewBox="0 0 161 36" fill="none" xmlns="http://www.w3.org/2000/svg">
<path d="M17.7402 0C27.5218 0.000187791 35.4795 7.90533 35.4795 17.6221C35.4795 27.3389 27.5219 35.244 17.7402 35.2441C7.95848 35.2441 0 27.339 0 17.6221C3.95719e-05 7.90521 7.95851 0 17.7402 0ZM17.7402 1.80762C8.96148 1.80762 1.81938 8.90589 1.81934 17.6221C1.81934 26.3383 8.96145 33.4365 17.7402 33.4365C26.5189 33.4363 33.6602 26.3382 33.6602 17.6221C33.6601 8.906 26.518 1.80781 17.7402 1.80762ZM124.983 9.2793C129.448 9.27933 133.064 12.8938 133.064 17.3291C133.062 18.919 132.585 20.4731 131.694 21.7939C130.803 23.1148 129.537 24.1436 128.058 24.75C126.578 25.3563 124.95 25.5135 123.381 25.2012C121.811 24.8888 120.37 24.121 119.24 22.9951C118.11 21.8692 117.341 20.435 117.031 18.875C116.721 17.3151 116.885 15.6986 117.499 14.2305C118.114 12.7625 119.153 11.5083 120.485 10.627C121.818 9.7457 123.383 9.27687 124.983 9.2793ZM53.6533 12.9639H45.7852V15.6865H51.999V18.9492H45.7852V21.6719H53.6533V24.9346H42.0996V9.6748H53.6533V12.9639ZM79.6426 12.9639H73.8047V24.9346H70.1182V12.9639H64.2793V9.6748H79.6426V12.9639ZM95.0684 16.0586H101.778V9.6748H105.463V24.9346H101.778V19.3486H95.0684V24.9346H91.3818V9.6748H95.0684V16.0586ZM152.51 9.6748C157.21 9.6748 160.188 13.0822 160.188 17.2832C160.191 18.2865 159.994 19.2803 159.61 20.208C159.225 21.136 158.66 21.9797 157.946 22.6904C157.233 23.401 156.385 23.9656 155.453 24.3506C154.52 24.7355 153.52 24.934 152.51 24.9346H145.232V9.6748H152.51ZM13.4707 17.4004L17.085 9.60938H18.6924L22.2363 17.332V9.60938H25.9463V24.8662H22.2363V24.7959L17.8887 16.2256L13.4707 24.8633L9.78418 24.8662V9.60938H13.4707V17.4004ZM124.983 12.7998C124.084 12.7972 123.203 13.0593 122.453 13.5537C121.704 14.0481 121.119 14.7525 120.772 15.5771C120.426 16.4019 120.333 17.3104 120.507 18.1875C120.679 19.0646 121.111 19.8712 121.745 20.5049C122.38 21.1386 123.189 21.5714 124.071 21.748C124.953 21.9246 125.868 21.8369 126.7 21.4971C127.532 21.1571 128.244 20.5797 128.746 19.8379C129.248 19.096 129.517 18.2228 129.52 17.3291C129.519 14.8415 127.488 12.7998 124.983 12.7998ZM148.919 21.2744H152.864C154.776 21.2026 156.502 19.5597 156.502 17.2832H156.504C156.504 15.0065 154.801 13.3398 152.864 13.3398H148.919V21.2744Z" fill="#2762E5"/>
</svg>
